<svg width="19" height="19" viewBox="0 0 19 19" fill="none" xmlns="http://www.w3.org/2000/svg">
<g id="devicon:google" clip-path="url(#clip0_3059_670)">
<path id="Vector" d="M6.61881 0.624866C4.72042 1.28344 3.08324 2.53342 1.94777 4.19123C0.812291 5.84903 0.238362 7.82727 0.310281 9.83536C0.382201 11.8435 1.09618 13.7756 2.34734 15.3479C3.5985 16.9202 5.3209 18.0499 7.26155 18.571C8.83487 18.9769 10.4832 18.9948 12.065 18.6229C13.4979 18.3011 14.8226 17.6126 15.9095 16.6249C17.0407 15.5656 17.8618 14.218 18.2845 12.727C18.7438 11.1055 18.8256 9.4004 18.5235 7.74244H9.6885V11.4074H14.8051C14.7029 11.9919 14.4837 12.5498 14.1608 13.0476C13.838 13.5455 13.4179 13.9731 12.9259 14.3049C12.3012 14.7183 11.5969 14.9964 10.8582 15.1213C10.1174 15.259 9.35756 15.259 8.61678 15.1213C7.86591 14.9662 7.15562 14.6563 6.53123 14.2113C5.52802 13.5012 4.77474 12.4923 4.37889 11.3287C3.97646 10.1432 3.97646 8.85813 4.37889 7.67268C4.66066 6.84175 5.12647 6.08519 5.74155 5.45947C6.44542 4.73027 7.33656 4.20903 8.31717 3.95295C9.29778 3.69686 10.33 3.71582 11.3005 4.00776C12.0587 4.24039 12.7521 4.64704 13.3252 5.19526C13.9021 4.6213 14.4781 4.04586 15.053 3.46893C15.3499 3.15869 15.6735 2.8633 15.9659 2.54565C15.0909 1.73149 14.0639 1.09794 12.9437 0.681272C10.9038 -0.0594463 8.67167 -0.0793524 6.61881 0.624866Z" fill="white"/>
<path id="Vector_2" d="M6.61881 0.624977C8.6715 -0.07972 10.9036 -0.0603379 12.9437 0.679899C14.0641 1.0994 15.0907 1.736 15.9644 2.55318C15.6676 2.87084 15.3544 3.16771 15.0515 3.47646C14.4756 4.05141 13.9002 4.62438 13.3252 5.19537C12.7521 4.64715 12.0587 4.2405 11.3005 4.00787C10.3303 3.71491 9.29813 3.69485 8.31726 3.94989C7.33639 4.20493 6.44471 4.72521 5.74006 5.45365C5.12498 6.07937 4.65918 6.83592 4.3774 7.66685L1.30029 5.28443C2.40171 3.10026 4.30875 1.42954 6.61881 0.624977Z" fill="#E33629"/>
<path id="Vector_3" d="M0.483924 7.64458C0.649194 6.82487 0.923783 6.03105 1.30033 5.28442L4.37744 7.67278C3.97501 8.85823 3.97501 10.1433 4.37744 11.3288C3.35223 12.1205 2.32653 12.9161 1.30033 13.7157C0.357976 11.8399 0.070574 9.70267 0.483924 7.64458Z" fill="#F8BD00"/>
<path id="Vector_4" d="M9.68853 7.74097H18.5235C18.8256 9.39892 18.7438 11.104 18.2845 12.7255C17.8618 14.2165 17.0408 15.5641 15.9095 16.6235C14.9165 15.8486 13.919 15.0797 12.9259 14.3049C13.4183 13.9728 13.8385 13.5447 14.1614 13.0463C14.4843 12.5479 14.7033 11.9895 14.8052 11.4044H9.68853C9.68704 10.1842 9.68853 8.96261 9.68853 7.74097Z" fill="#587DBD"/>
<path id="Vector_5" d="M1.29883 13.7156C2.32503 12.9239 3.35073 12.1283 4.37594 11.3287C4.77257 12.4928 5.52693 13.5017 6.53125 14.2114C7.15758 14.6543 7.86941 14.9617 8.62125 15.1139C9.36203 15.2517 10.1219 15.2517 10.8627 15.1139C11.6013 14.989 12.3057 14.7109 12.9304 14.2975C13.9234 15.0723 14.9209 15.8412 15.914 16.6161C14.8273 17.6043 13.5025 18.2932 12.0695 18.6155C10.4877 18.9874 8.83934 18.9695 7.26602 18.5636C6.02167 18.2313 4.85936 17.6456 3.85195 16.8432C2.78577 15.9965 1.9149 14.9297 1.29883 13.7156Z" fill="#319F43"/>
</g>
<defs>
<clipPath id="clip0_3059_670">
<rect width="19" height="19" fill="white"/>
</clipPath>
</defs>
</svg>
