<svg width="62" height="28" viewBox="0 0 62 28" fill="none" xmlns="http://www.w3.org/2000/svg">
<rect x="0.666748" width="60.6667" height="28" rx="6.95811" fill="#2D62FE"/>
<path d="M11.96 21.1282V6.87179H17.5007C18.5658 6.87179 19.4733 7.07831 20.223 7.49133C20.9727 7.89972 21.5442 8.46821 21.9373 9.19681C22.335 9.92077 22.5339 10.7561 22.5339 11.7028C22.5339 12.6495 22.3328 13.4849 21.9305 14.2088C21.5282 14.9328 20.9453 15.4967 20.1819 15.9004C19.423 16.3041 18.5041 16.506 17.4252 16.506H13.8937V14.0905H16.9452C17.5167 14.0905 17.9875 13.9907 18.3578 13.7912C18.7327 13.587 19.0115 13.3062 19.1944 12.9489C19.3818 12.5869 19.4756 12.1715 19.4756 11.7028C19.4756 11.2295 19.3818 10.8164 19.1944 10.4637C19.0115 10.1064 18.7327 9.83028 18.3578 9.63537C17.9829 9.43581 17.5075 9.33604 16.9315 9.33604H14.9292V21.1282H11.96Z" fill="white"/>
<path d="M24.4625 21.1282V6.87179H30.0032C31.0638 6.87179 31.969 7.06438 32.7187 7.44957C33.473 7.83011 34.0467 8.37076 34.4399 9.07151C34.8376 9.76763 35.0365 10.5867 35.0365 11.5288C35.0365 12.4755 34.8353 13.29 34.433 13.9722C34.0307 14.6497 33.4478 15.1695 32.6844 15.5315C31.9255 15.8934 31.0067 16.0744 29.9278 16.0744H26.218V13.6519H29.4478C30.0146 13.6519 30.4855 13.5731 30.8604 13.4153C31.2352 13.2575 31.5141 13.0208 31.697 12.7052C31.8844 12.3897 31.9781 11.9975 31.9781 11.5288C31.9781 11.0554 31.8844 10.6563 31.697 10.3315C31.5141 10.0066 31.2329 9.76067 30.8535 9.5936C30.4786 9.42189 30.0055 9.33604 29.434 9.33604H27.4317V21.1282H24.4625ZM32.0467 14.6404L35.537 21.1282H32.2593L28.8443 14.6404H32.0467Z" fill="white"/>
<path d="M50.0402 14C50.0402 15.5547 49.7499 16.8773 49.1693 17.9679C48.5933 19.0584 47.807 19.8915 46.8104 20.4669C45.8184 21.0377 44.7029 21.3231 43.4641 21.3231C42.216 21.3231 41.096 21.0354 40.104 20.4599C39.112 19.8845 38.328 19.0515 37.7519 17.9609C37.1759 16.8703 36.8879 15.55 36.8879 14C36.8879 12.4453 37.1759 11.1227 37.7519 10.0322C38.328 8.94157 39.112 8.11088 40.104 7.54006C41.096 6.96461 42.216 6.67688 43.4641 6.67688C44.7029 6.67688 45.8184 6.96461 46.8104 7.54006C47.807 8.11088 48.5933 8.94157 49.1693 10.0322C49.7499 11.1227 50.0402 12.4453 50.0402 14ZM47.0299 14C47.0299 12.993 46.8813 12.1437 46.5841 11.4522C46.2915 10.7608 45.8778 10.2363 45.343 9.87901C44.8081 9.52167 44.1818 9.343 43.4641 9.343C42.7463 9.343 42.12 9.52167 41.5852 9.87901C41.0503 10.2363 40.6343 10.7608 40.3371 11.4522C40.0446 12.1437 39.8983 12.993 39.8983 14C39.8983 15.007 40.0446 15.8563 40.3371 16.5478C40.6343 17.2393 41.0503 17.7637 41.5852 18.121C42.12 18.4783 42.7463 18.657 43.4641 18.657C44.1818 18.657 44.8081 18.4783 45.343 18.121C45.8778 17.7637 46.2915 17.2393 46.5841 16.5478C46.8813 15.8563 47.0299 15.007 47.0299 14Z" fill="white"/>
</svg>
