<?xml version="1.0" encoding="UTF-8"?>
<svg data-name="Layer 2" id="Layer_2" viewBox="0 0 358.22 76.06" xmlns="http://www.w3.org/2000/svg">
    <g id="Layer_1-2">
        <g>
            <path d="M123.07,18.77h-15.95v44.81h-10.2V18.77h-15.95v-9.92h42.1v9.92Z" fill="#fff" />
            <path
                d="M125.45,63.58V21.33h9.05v5.84h.14c2.73-4.72,6.51-7.08,11.35-7.08h.86v10.51h-2.37c-2.44,0-4.55.85-6.32,2.55-1.72,1.65-2.68,3.72-2.87,6.2v24.23h-9.84Z"
                fill="#fff" />
            <path
                d="M188.99,34.46v29.12h-10.2v-6.13l-.22-.07c-3.07,4.96-7.33,7.44-12.79,7.44-10.87,0-16.31-4.65-16.31-13.94,0-4.28,1.39-7.57,4.17-9.85,2.78-2.29,6.97-3.43,12.57-3.43h12.57v-3.14c0-2.38-.69-3.97-2.08-4.74-1.34-.83-3.47-1.24-6.39-1.24s-5.03.41-6.47,1.24c-1.39.83-2.08,2.41-2.08,4.74h-9.77c0-4.77,1.63-8.34,4.88-10.73,3.26-2.43,7.73-3.65,13.43-3.65s10.3,1.22,13.65,3.65c3.35,2.38,5.03,5.96,5.03,10.73ZM178.78,48.76v-3.07h-12.57c-4.12,0-6.18,1.63-6.18,4.89,0,1.75.57,3.02,1.72,3.79,1.15.73,3.26,1.09,6.32,1.09,3.26,0,5.84-.63,7.76-1.9,1.96-1.31,2.95-2.92,2.95-4.82Z"
                fill="#fff" />
            <path
                d="M227.6,51.54c2.3-2.58,3.45-5.62,3.45-9.12s-1.15-6.52-3.45-9.05c-2.3-2.53-5.2-3.79-8.69-3.79s-6.39,1.26-8.69,3.79c-2.3,2.53-3.45,5.55-3.45,9.05s1.15,6.54,3.45,9.12c2.3,2.53,5.2,3.79,8.69,3.79s6.39-1.26,8.69-3.79ZM231.05,63.58v-6.2h-.14c-3.64,4.96-8.26,7.44-13.86,7.44-6.18,0-11.21-2.12-15.09-6.35-3.88-4.23-5.82-9.58-5.82-16.06s1.94-11.8,5.82-15.98c3.88-4.23,8.91-6.35,15.09-6.35,5.65,0,10.27,2.46,13.86,7.37h.14V8.85h10.2v54.73h-10.2Z"
                fill="#fff" />
            <path
                d="M293.44,42.42c0,1.46-.19,3.04-.57,4.74h-33.55c.57,2.38,1.94,4.43,4.09,6.13,2.2,1.7,4.72,2.55,7.54,2.55,2.06,0,3.9-.46,5.53-1.39,1.63-.97,2.9-2.16,3.81-3.58h11.06c-1.48,4.23-4.09,7.61-7.83,10.14-3.74,2.53-7.93,3.79-12.57,3.79-6.27,0-11.61-2.14-16.02-6.42-4.36-4.33-6.54-9.66-6.54-15.98s2.2-11.63,6.61-15.91,9.77-6.42,16.09-6.42,11.45,2.17,15.8,6.5c4.36,4.33,6.54,9.61,6.54,15.84ZM259.46,38.18h23.06c-.53-2.68-1.82-4.89-3.88-6.64-2.01-1.8-4.53-2.7-7.54-2.7s-5.58.9-7.69,2.7c-2.11,1.8-3.42,4.01-3.95,6.64Z"
                fill="#fff" />
            <path d="M300.63,63.58V8.85h10.2v54.73h-10.2Z" fill="#fff" />
            <path
                d="M358.22,21.33l-20.83,54.73h-10.49l5.1-13.43-15.8-41.31h10.56l10.42,27.51h.14l10.34-27.51h10.56Z"
                fill="#fff" />
            <g>
                <rect fill="#2d62fe" height="72.43" rx="20" ry="20" width="72.43" x="0" y="0" />
                <g>
                    <path
                        d="M39.81,11.53h-4.94v4.45h-4.94v26.69h4.94v4.45h4.94v-4.45h4.94V15.97h-4.94v-4.45Z"
                        fill="#FFFFFF" />
                    <path
                        d="M46.49,50.87c1.03,3.7-2.56,5.39-5.62,5.42-3.09.07-5.97-.87-8.81-1.86-1.97-.75-4.05-1.18-6.15-1.28-.87-.05-2.54-.24-2.04.84.52,1.09,2.69,2.03,3.67,2.6,1.71,1,3.51,1.92,5.37,2.64l-1.52,3.67c-3.55-1.27-7.44-3.39-10.12-6.05-1.54-1.51-2.54-3.57-1.12-5.53,1.21-1.7,3.44-2.09,5.4-2.09,4.61,0,8.61,2.36,13.08,3.02.94.15,2.07.34,3.05.11.96-.19.95-.31.38-1.06-1.5-1.99-4.94-3.31-7.2-4.17l1.52-3.67c3.37,1.33,8.84,3.67,10.1,7.42Z"
                        fill="#FFFFFF" />
                </g>
            </g>
        </g>
    </g>
</svg>