<svg width="140" height="33" viewBox="0 0 140 33" fill="none" xmlns="http://www.w3.org/2000/svg">
<g id="Group 1000004216">
<g id="Tradely">
<path d="M21.2571 4.87297H13.2041V26.873H8.05304V4.87297H0V0H21.2571V4.87297Z" fill="white"/>
<path d="M22.4621 26.873V6.12704H27.0328V8.99349H27.1053C28.4838 6.67644 30.3942 5.51792 32.8368 5.51792H33.272V10.6775H32.075C30.8416 10.6775 29.7776 11.0955 28.8828 11.9316C28.0122 12.7438 27.5285 13.759 27.4318 14.9772V26.873H22.4621Z" fill="white"/>
<path d="M54.5428 12.5765V26.873H49.3917V23.8632L49.2829 23.8274C47.7352 26.2638 45.5829 27.4821 42.826 27.4821C37.3364 27.4821 34.5915 25.2009 34.5915 20.6384C34.5915 18.5364 35.2929 16.924 36.6955 15.8013C38.0981 14.6786 40.2142 14.1173 43.0436 14.1173H49.3917V12.5765C49.3917 11.4061 49.0411 10.6298 48.3398 10.2476C47.6626 9.84148 46.5865 9.63844 45.1113 9.63844C43.6603 9.63844 42.572 9.84148 41.8465 10.2476C41.1452 10.6536 40.7946 11.43 40.7946 12.5765H35.8612C35.8612 10.2356 36.6834 8.47991 38.3279 7.30945C39.9723 6.11509 42.2335 5.51792 45.1113 5.51792C48.0133 5.51792 50.3107 6.11509 52.0035 7.30945C53.6964 8.47991 54.5428 10.2356 54.5428 12.5765ZM49.3917 19.5993V18.0945H43.0436C40.9638 18.0945 39.924 18.8947 39.924 20.4951C39.924 21.3551 40.2142 21.9761 40.7946 22.3583C41.375 22.7166 42.439 22.8958 43.9868 22.8958C45.6312 22.8958 46.9371 22.5852 47.9045 21.9642C48.896 21.3192 49.3917 20.5309 49.3917 19.5993Z" fill="white"/>
<path d="M74.0417 20.9609C75.2025 19.6949 75.7829 18.202 75.7829 16.4821C75.7829 14.7622 75.2025 13.2812 74.0417 12.0391C72.8809 10.797 71.4178 10.1759 69.6524 10.1759C67.887 10.1759 66.4239 10.797 65.2631 12.0391C64.1023 13.2812 63.5219 14.7622 63.5219 16.4821C63.5219 18.202 64.1023 19.6949 65.2631 20.9609C66.4239 22.203 67.887 22.8241 69.6524 22.8241C71.4178 22.8241 72.8809 22.203 74.0417 20.9609ZM75.7829 26.873V23.8274H75.7103C73.8724 26.2638 71.5387 27.4821 68.7093 27.4821C65.5896 27.4821 63.0504 26.443 61.0915 24.3648C59.1327 22.2866 58.1533 19.6591 58.1533 16.4821C58.1533 13.3051 59.1327 10.6895 61.0915 8.63518C63.0504 6.557 65.5896 5.51792 68.7093 5.51792C71.5629 5.51792 73.8966 6.72421 75.7103 9.13681H75.7829V0H80.9339V26.873H75.7829Z" fill="white"/>
<path d="M107.289 16.4821C107.289 17.1987 107.192 17.975 106.999 18.8111H90.0585C90.3487 19.9815 91.0379 20.9848 92.1261 21.8208C93.2386 22.6569 94.5082 23.0749 95.935 23.0749C96.9749 23.0749 97.906 22.848 98.7282 22.3941C99.5504 21.9164 100.191 21.3312 100.651 20.6384H106.237C105.487 22.7166 104.169 24.3768 102.283 25.6189C100.397 26.861 98.2808 27.4821 95.935 27.4821C92.767 27.4821 90.0706 26.4311 87.8457 24.329C85.645 22.203 84.5447 19.5874 84.5447 16.4821C84.5447 13.3768 85.6571 10.7731 87.882 8.67101C90.1068 6.56895 92.8154 5.51792 96.0076 5.51792C99.1272 5.51792 101.787 6.58089 103.988 8.70684C106.189 10.8328 107.289 13.4245 107.289 16.4821ZM90.131 14.4039H101.775C101.509 13.0901 100.856 12.0033 99.8164 11.1433C98.8007 10.2595 97.5311 9.81759 96.0076 9.81759C94.484 9.81759 93.1902 10.2595 92.1261 11.1433C91.0621 12.0271 90.397 13.114 90.131 14.4039Z" fill="white"/>
<path d="M110.918 26.873V0H116.069V26.873H110.918Z" fill="white"/>
<path d="M140 6.12704L129.48 33H124.184L126.76 26.4072L118.779 6.12704H124.112L129.371 19.6352H129.444L134.668 6.12704H140Z" fill="white"/>
</g>
</g>
</svg>
