<svg width="99" height="24" viewBox="0 0 99 24" fill="none" xmlns="http://www.w3.org/2000/svg">
<path d="M15.0318 3.54397H9.33717V19.544H5.69465V3.54397H0V0H15.0318V3.54397Z" fill="white"/>
<path d="M15.8839 19.544V4.45603H19.116V6.54072H19.1673C20.1421 4.85559 21.4931 4.01303 23.2203 4.01303H23.5281V7.76547H22.6816C21.8094 7.76547 21.057 8.06949 20.4243 8.67753C19.8086 9.26819 19.4666 10.0065 19.3982 10.8925V19.544H15.8839Z" fill="white"/>
<path d="M38.5695 9.14658V19.544H34.927V17.355L34.8501 17.329C33.7556 19.101 32.2336 19.987 30.2841 19.987C26.4021 19.987 24.4612 18.3279 24.4612 15.0098C24.4612 13.481 24.9571 12.3084 25.949 11.4919C26.9408 10.6754 28.4372 10.2671 30.438 10.2671H34.927V9.14658C34.927 8.29533 34.679 7.73073 34.1831 7.45277C33.7043 7.15744 32.9433 7.00977 31.9001 7.00977C30.8741 7.00977 30.1045 7.15744 29.5915 7.45277C29.0956 7.7481 28.8476 8.3127 28.8476 9.14658H25.359C25.359 7.44408 25.9404 6.16721 27.1033 5.31596C28.2661 4.44734 29.8651 4.01303 31.9001 4.01303C33.9522 4.01303 35.5768 4.44734 36.7739 5.31596C37.971 6.16721 38.5695 7.44408 38.5695 9.14658ZM34.927 14.2541V13.1596H30.438C28.9673 13.1596 28.2319 13.7416 28.2319 14.9055C28.2319 15.5309 28.4372 15.9826 28.8476 16.2606C29.258 16.5212 30.0105 16.6515 31.1049 16.6515C32.2678 16.6515 33.1912 16.4256 33.8753 15.9739C34.5764 15.5049 34.927 14.9316 34.927 14.2541Z" fill="white"/>
<path d="M52.358 15.2443C53.1789 14.3236 53.5893 13.2378 53.5893 11.987C53.5893 10.7362 53.1789 9.65907 52.358 8.7557C51.5372 7.85233 50.5026 7.40065 49.2542 7.40065C48.0058 7.40065 46.9712 7.85233 46.1504 8.7557C45.3295 9.65907 44.9191 10.7362 44.9191 11.987C44.9191 13.2378 45.3295 14.3236 46.1504 15.2443C46.9712 16.1477 48.0058 16.5993 49.2542 16.5993C50.5026 16.5993 51.5372 16.1477 52.358 15.2443ZM53.5893 19.544V17.329H53.538C52.2383 19.101 50.5881 19.987 48.5873 19.987C46.3812 19.987 44.5856 19.2313 43.2004 17.7199C41.8153 16.2085 41.1227 14.2975 41.1227 11.987C41.1227 9.67644 41.8153 7.77416 43.2004 6.28013C44.5856 4.76873 46.3812 4.01303 48.5873 4.01303C50.6052 4.01303 52.2554 4.89034 53.538 6.64495H53.5893V0H57.2318V19.544H53.5893Z" fill="white"/>
<path d="M75.8687 11.987C75.8687 12.5081 75.8003 13.0727 75.6635 13.6808H63.6842C63.8894 14.532 64.3768 15.2617 65.1463 15.8697C65.933 16.4777 66.8308 16.7818 67.8398 16.7818C68.5751 16.7818 69.2335 16.6167 69.8149 16.2866C70.3964 15.9392 70.8495 15.5136 71.1745 15.0098H75.1248C74.5947 16.5212 73.6627 17.7286 72.3288 18.6319C70.9949 19.5353 69.4986 19.987 67.8398 19.987C65.5995 19.987 63.6928 19.2226 62.1195 17.6938C60.5633 16.1477 59.7852 14.2454 59.7852 11.987C59.7852 9.72856 60.5718 7.83496 62.1451 6.30619C63.7184 4.77742 65.6337 4.01303 67.8911 4.01303C70.0971 4.01303 71.9782 4.7861 73.5344 6.33225C75.0906 7.87839 75.8687 9.7633 75.8687 11.987ZM63.7355 10.4756H71.9697C71.7815 9.52009 71.3198 8.72964 70.5845 8.10424C69.8662 7.46146 68.9684 7.14007 67.8911 7.14007C66.8137 7.14007 65.8988 7.46146 65.1463 8.10424C64.3939 8.74701 63.9236 9.53746 63.7355 10.4756Z" fill="white"/>
<path d="M78.4347 19.544V0H82.0772V19.544H78.4347Z" fill="white"/>
<path d="M99 4.45603L91.561 24H87.8159L89.6372 19.2052L83.9938 4.45603H87.7646L91.4841 14.2801H91.5354L95.2292 4.45603H99Z" fill="white"/>
</svg>
