<svg width="40" height="40" viewBox="0 0 40 40" fill="none" xmlns="http://www.w3.org/2000/svg">
<g id="Group">
<path id="Vector" d="M28.6436 0H10.9264C4.89192 0 0 4.89192 0 10.9264V28.6436C0 34.6781 4.89192 39.57 10.9264 39.57H28.6436C34.6781 39.57 39.57 34.6781 39.57 28.6436V10.9264C39.57 4.89192 34.6781 0 28.6436 0Z" fill="#2D62FE"/>
<g id="Group_2">
<path id="Vector_2" d="M21.7492 6.29916H19.0504V8.73029H16.3516V23.3116H19.0504V25.7427H21.7492V23.3116H24.448V8.72483H21.7492V6.2937V6.29916Z" fill="white"/>
<path id="Vector_3" d="M25.3985 27.7914C25.9612 29.8128 23.9999 30.7361 22.3282 30.7525C20.6401 30.7907 19.0667 30.2772 17.5151 29.7363C16.4389 29.3266 15.3025 29.0916 14.1552 29.037C13.6799 29.0097 12.7676 28.9059 13.0407 29.4959C13.3248 30.0914 14.5103 30.605 15.0457 30.9164C15.9799 31.4627 16.9633 31.9653 17.9795 32.3586L17.1491 34.3636C15.2096 33.6698 13.0844 32.5116 11.6203 31.0584C10.779 30.2335 10.2327 29.108 11.0084 28.0372C11.6695 27.1085 12.8878 26.8954 13.9586 26.8954C16.4771 26.8954 18.6624 28.1848 21.1044 28.5453C21.618 28.6273 22.2353 28.7311 22.7707 28.6054C23.2952 28.5016 23.2897 28.4361 22.9783 28.0263C22.1588 26.9391 20.2795 26.218 19.0448 25.7482L19.8752 23.7432C21.7163 24.4698 24.7047 25.7482 25.393 27.7969L25.3985 27.7914Z" fill="white"/>
</g>
</g>
</svg>
