<svg width="22" height="22" viewBox="0 0 22 22" fill="none" xmlns="http://www.w3.org/2000/svg">
<g id="icon-park:dashboard">
<path id="Vector" fill-rule="evenodd" clip-rule="evenodd" d="M11.5 9.12461C12.1465 9.12461 12.7665 8.87438 13.2236 8.42897C13.6807 7.98355 13.9375 7.37944 13.9375 6.74953C13.9375 6.11962 13.6807 5.51551 13.2236 5.0701C12.7665 4.62468 12.1465 4.37445 11.5 4.37445C10.8535 4.37445 10.2335 4.62468 9.77643 5.0701C9.31931 5.51551 9.0625 6.11962 9.0625 6.74953C9.0625 7.37944 9.31931 7.98355 9.77643 8.42897C10.2335 8.87438 10.8535 9.12461 11.5 9.12461ZM16.375 6.74953C16.3752 8.00282 15.867 9.20539 14.9613 10.0952C15.8919 10.6657 16.6589 11.457 17.1903 12.3949C17.7218 13.3328 18.0004 14.3868 18 15.4582V17.8332C18 18.6731 17.6576 19.4786 17.0481 20.0725C16.4386 20.6664 15.612 21 14.75 21H8.25C7.38805 21 6.5614 20.6664 5.9519 20.0725C5.34241 19.4786 5 18.6731 5 17.8332V15.4582C5 13.1987 6.21387 11.2163 8.03875 10.0952C7.47481 9.5412 7.05962 8.86033 6.82989 8.11281C6.60016 7.36529 6.56297 6.57414 6.72159 5.80928C6.88021 5.04442 7.22977 4.32942 7.73936 3.72747C8.24895 3.12552 8.90289 2.65517 9.64336 2.35799C10.3838 2.0608 11.188 1.94594 11.9849 2.02356C12.7817 2.10117 13.5467 2.36887 14.2122 2.80299C14.8776 3.23712 15.4231 3.82429 15.8003 4.51261C16.1775 5.20094 16.3749 5.96921 16.375 6.74953ZM7.4375 15.4582C7.4375 14.4083 7.86551 13.4015 8.62738 12.6591C9.38925 11.9167 10.4226 11.4997 11.5 11.4997C12.5774 11.4997 13.6108 11.9167 14.3726 12.6591C15.1345 13.4015 15.5625 14.4083 15.5625 15.4582V17.8332C15.5625 18.0432 15.4769 18.2446 15.3245 18.393C15.1722 18.5415 14.9655 18.6249 14.75 18.6249H8.25C8.03451 18.6249 7.82785 18.5415 7.67548 18.393C7.5231 18.2446 7.4375 18.0432 7.4375 17.8332V15.4582Z" fill="#898989"/>
</g>
</svg>
