<svg width="11" height="18" viewBox="0 0 11 18" fill="none" xmlns="http://www.w3.org/2000/svg">
<path fill-rule="evenodd" clip-rule="evenodd" d="M1.1821 10.2684C0.846452 9.93233 0.657924 9.47678 0.657924 9.00182C0.657924 8.52685 0.846452 8.0713 1.1821 7.73524L7.94035 0.974595C8.27658 0.63852 8.73255 0.449778 9.20795 0.44989C9.68334 0.450002 10.1392 0.638959 10.4753 0.975192C10.8114 1.31143 11.0001 1.76739 11 2.24279C10.9999 2.71818 10.8109 3.17406 10.4747 3.51014L4.98302 9.00182L10.4747 14.4935C10.8013 14.8314 10.9822 15.284 10.9784 15.754C10.9745 16.2239 10.7862 16.6736 10.4541 17.006C10.1219 17.3385 9.67245 17.5272 9.20251 17.5315C8.73257 17.5358 8.27974 17.3554 7.94155 17.029L1.1809 10.2696L1.1821 10.2684Z" fill="#9F9F9F"/>
</svg>
