<svg width="21" height="21" viewBox="0 0 21 21" fill="none" xmlns="http://www.w3.org/2000/svg">
<g id="mingcute:down-line" clip-path="url(#clip0_52_293)">
<g id="Group">
<path id="Vector" fill-rule="evenodd" clip-rule="evenodd" d="M14.3995 9.3517C14.5706 9.52072 14.6667 9.74993 14.6667 9.98892C14.6667 10.2279 14.5706 10.4571 14.3995 10.6261L9.23604 15.7248C9.15184 15.8109 9.05112 15.8796 8.93976 15.9268C8.8284 15.9741 8.70863 15.9989 8.58744 16C8.46624 16.001 8.34605 15.9782 8.23388 15.9329C8.1217 15.8876 8.01979 15.8206 7.93409 15.736C7.84839 15.6514 7.78061 15.5508 7.73472 15.44C7.68882 15.3292 7.66573 15.2105 7.66678 15.0909C7.66784 14.9712 7.69302 14.8529 7.74085 14.743C7.78869 14.633 7.85822 14.5335 7.9454 14.4504L12.4635 9.98892L7.9454 5.52745C7.77914 5.35747 7.68713 5.1298 7.68921 4.89348C7.69129 4.65716 7.78729 4.4311 7.95652 4.26399C8.12575 4.09688 8.35468 4.00209 8.59401 4.00003C8.83333 3.99798 9.06389 4.08883 9.23604 4.25301L14.3995 9.3517Z" fill="white"/>
</g>
</g>
<defs>
<clipPath id="clip0_52_293">
<rect width="21" height="21" fill="white" transform="matrix(0 -1 1 0 0.666748 21)"/>
</clipPath>
</defs>
</svg>
