<svg width="22" height="21" viewBox="0 0 22 21" fill="none" xmlns="http://www.w3.org/2000/svg">
<g id="mingcute:down-line" clip-path="url(#clip0_52_289)">
<g id="Group">
<path id="Vector" fill-rule="evenodd" clip-rule="evenodd" d="M7.93399 11.6483C7.76288 11.4793 7.66675 11.2501 7.66675 11.0111C7.66675 10.7721 7.76288 10.5429 7.93399 10.3739L13.0975 5.27516C13.1817 5.18907 13.2824 5.12041 13.3937 5.07317C13.5051 5.02594 13.6249 5.00107 13.7461 5.00003C13.8673 4.99899 13.9874 5.0218 14.0996 5.06712C14.2118 5.11244 14.3137 5.17936 14.3994 5.26399C14.4851 5.34861 14.5529 5.44925 14.5988 5.56001C14.6447 5.67078 14.6678 5.78946 14.6667 5.90914C14.6657 6.02881 14.6405 6.14708 14.5926 6.25705C14.5448 6.36701 14.4753 6.46646 14.3881 6.54961L9.86995 11.0111L14.3881 15.4725C14.5544 15.6425 14.6464 15.8702 14.6443 16.1065C14.6422 16.3428 14.5462 16.5689 14.377 16.736C14.2077 16.9031 13.9788 16.9979 13.7395 17C13.5002 17.002 13.2696 16.9112 13.0975 16.747L7.93399 11.6483Z" fill="white"/>
</g>
</g>
<defs>
<clipPath id="clip0_52_289">
<rect width="21" height="21" fill="white" transform="matrix(0 1 -1 0 21.6667 0)"/>
</clipPath>
</defs>
</svg>
