<svg width="17" height="14" viewBox="0 0 17 14" fill="none" xmlns="http://www.w3.org/2000/svg">
<path d="M17.0033 3.3793C17.0033 3.67189 16.9009 3.92059 16.6961 4.1254L8.75241 12.0691L7.26022 13.5613C7.05541 13.7661 6.80671 13.8685 6.51412 13.8685C6.22154 13.8685 5.97284 13.7661 5.76803 13.5613L4.27584 12.0691L0.303981 8.09725C0.0991703 7.89244 -0.00323486 7.64375 -0.00323486 7.35116C-0.00323486 7.05857 0.0991703 6.80988 0.303981 6.60506L1.79617 5.11287C2.00098 4.90806 2.24968 4.80566 2.54227 4.80566C2.83485 4.80566 3.08355 4.90806 3.28836 5.11287L6.51412 8.34961L13.7117 1.14102C13.9166 0.936206 14.1653 0.833801 14.4578 0.833801C14.7504 0.833801 14.9991 0.936206 15.2039 1.14102L16.6961 2.63321C16.9009 2.83802 17.0033 3.08672 17.0033 3.3793Z" fill="white"/>
</svg>
