<svg width="22" height="22" viewBox="0 0 22 22" fill="none" xmlns="http://www.w3.org/2000/svg">
<g id="mdi:hide">
<path id="Vector" d="M10.8455 8.36842L13.7273 11.1958V11.0526C13.7273 10.3407 13.4399 9.65799 12.9285 9.15461C12.417 8.65122 11.7233 8.36842 11 8.36842H10.8455ZM6.93636 9.08421L8.34545 10.4711C8.3 10.6589 8.27273 10.8468 8.27273 11.0526C8.27273 11.7645 8.56006 12.4473 9.07153 12.9507C9.58299 13.454 10.2767 13.7368 11 13.7368C11.2 13.7368 11.4 13.71 11.5909 13.6653L13 15.0521C12.3909 15.3474 11.7182 15.5263 11 15.5263C9.79447 15.5263 8.63832 15.055 7.78588 14.216C6.93344 13.377 6.45455 12.2391 6.45455 11.0526C6.45455 10.3458 6.63636 9.68368 6.93636 9.08421ZM1.90909 4.13632L3.98182 6.17632L4.39091 6.57895C2.89091 7.74211 1.70909 9.26316 1 11.0526C2.57273 14.9805 6.45455 17.7632 11 17.7632C12.4091 17.7632 13.7545 17.4947 14.9818 17.0116L15.3727 17.3874L18.0273 20L19.1818 18.8637L3.06364 3M11 6.57895C12.2055 6.57895 13.3617 7.05028 14.2141 7.88926C15.0666 8.72824 15.5455 9.86614 15.5455 11.0526C15.5455 11.6253 15.4273 12.18 15.2182 12.6811L17.8818 15.3026C19.2455 14.1842 20.3364 12.7168 21 11.0526C19.4273 7.12474 15.5455 4.34211 11 4.34211C9.72727 4.34211 8.50909 4.56579 7.36364 4.96842L9.33636 6.89211C9.85455 6.69526 10.4091 6.57895 11 6.57895Z" fill="white"/>
</g>
</svg>
