<svg width="16" height="17" viewBox="0 0 16 17" fill="none" xmlns="http://www.w3.org/2000/svg">
<g id="material-symbols:info-outline" clip-path="url(#clip0_18_1705)">
<path id="Vector" d="M7.19995 12.4999H8.79993V7.69995H7.19995V12.4999ZM7.99994 6.09996C8.22661 6.09996 8.41674 6.02316 8.57034 5.86956C8.72394 5.71596 8.80047 5.5261 8.79993 5.29996C8.7994 5.07383 8.7226 4.88397 8.56954 4.73037C8.41647 4.57677 8.22661 4.49997 7.99994 4.49997C7.77328 4.49997 7.58341 4.57677 7.43034 4.73037C7.27728 4.88397 7.20048 5.07383 7.19995 5.29996C7.19941 5.5261 7.27621 5.71623 7.43034 5.87036C7.58448 6.02449 7.77434 6.10102 7.99994 6.09996ZM7.99994 16.4999C6.89328 16.4999 5.85329 16.2897 4.87996 15.8695C3.90664 15.4492 3.05998 14.8794 2.33998 14.1599C1.61999 13.4404 1.05013 12.5938 0.630396 11.6199C0.210666 10.6461 0.000534342 9.60606 1.01265e-06 8.49994C-0.000532317 7.39381 0.209599 6.35382 0.630396 5.37996C1.05119 4.4061 1.62106 3.55944 2.33998 2.83998C3.05891 2.12052 3.90557 1.55066 4.87996 1.1304C5.85436 0.710132 6.89435 0.5 7.99994 0.5C9.10553 0.5 10.1455 0.710132 11.1199 1.1304C12.0943 1.55066 12.941 2.12052 13.6599 2.83998C14.3788 3.55944 14.949 4.4061 15.3703 5.37996C15.7916 6.35382 16.0015 7.39381 15.9999 8.49994C15.9983 9.60606 15.7881 10.6461 15.3695 11.6199C14.9508 12.5938 14.381 13.4404 13.6599 14.1599C12.9388 14.8794 12.0922 15.4495 11.1199 15.8703C10.1477 16.2911 9.10767 16.5009 7.99994 16.4999ZM7.99994 14.8999C9.78659 14.8999 11.2999 14.2799 12.5399 13.0399C13.7799 11.7999 14.3999 10.2866 14.3999 8.49994C14.3999 6.71329 13.7799 5.19996 12.5399 3.95997C11.2999 2.71998 9.78659 2.09999 7.99994 2.09999C6.21329 2.09999 4.69997 2.71998 3.45997 3.95997C2.21998 5.19996 1.59999 6.71329 1.59999 8.49994C1.59999 10.2866 2.21998 11.7999 3.45997 13.0399C4.69997 14.2799 6.21329 14.8999 7.99994 14.8999Z" fill="#898989"/>
</g>
<defs>
<clipPath id="clip0_18_1705">
<rect width="16" height="16" fill="white" transform="translate(0 0.5)"/>
</clipPath>
</defs>
</svg>
