<svg width="27" height="27" viewBox="0 0 27 27" fill="none" xmlns="http://www.w3.org/2000/svg">
<path d="M14.6238 2.63708C15.8538 2.64036 16.478 2.64692 17.017 2.66223L17.2291 2.66988C17.474 2.67863 17.7156 2.68956 18.0075 2.70268C19.1707 2.75734 19.9644 2.94101 20.6608 3.21104C21.3823 3.48873 21.9902 3.86481 22.5981 4.47157C23.1542 5.0179 23.5844 5.67904 23.8586 6.40882C24.1286 7.10522 24.3123 7.89892 24.3669 9.06324C24.3801 9.35405 24.391 9.59566 24.3997 9.84164L24.4063 10.0537C24.4227 10.5916 24.4293 11.2159 24.4314 12.4458L24.4325 13.2613V14.6935C24.4352 15.4909 24.4268 16.2884 24.4074 17.0855L24.4008 17.2976C24.3921 17.5436 24.3811 17.7852 24.368 18.076C24.3134 19.2404 24.1275 20.033 23.8586 20.7305C23.5844 21.4602 23.1542 22.1214 22.5981 22.6677C22.0517 23.2238 21.3906 23.654 20.6608 23.9282C19.9644 24.1983 19.1707 24.3819 18.0075 24.4366L17.2291 24.4694L17.017 24.476C16.478 24.4913 15.8538 24.4989 14.6238 24.5011L13.8083 24.5022H12.3772C11.5794 24.505 10.7816 24.4966 9.98407 24.477L9.77198 24.4705C9.51245 24.4607 9.25298 24.4494 8.99358 24.4366C7.83036 24.3819 7.03665 24.1983 6.33916 23.9282C5.60977 23.6539 4.94902 23.2237 4.403 22.6677C3.84647 22.1215 3.41591 21.4603 3.14138 20.7305C2.87135 20.0341 2.68768 19.2404 2.63302 18.076L2.60022 17.2976L2.59476 17.0855C2.5746 16.2884 2.56549 15.4909 2.56742 14.6935V12.4458C2.5644 11.6484 2.57242 10.8509 2.59148 10.0537L2.59913 9.84164C2.60788 9.59566 2.61881 9.35405 2.63193 9.06324C2.68659 7.89892 2.87026 7.10631 3.14029 6.40882C3.41546 5.67874 3.84678 5.01758 4.40409 4.47157C4.9498 3.9157 5.61016 3.48553 6.33916 3.21104C7.03665 2.94101 7.82926 2.75734 8.99358 2.70268C9.28439 2.68956 9.52709 2.67863 9.77198 2.66988L9.98407 2.66332C10.7813 2.6439 11.5787 2.63552 12.3761 2.63818L14.6238 2.63708ZM13.5 8.10336C12.0502 8.10336 10.6599 8.67927 9.63474 9.7044C8.60961 10.7295 8.0337 12.1199 8.0337 13.5696C8.0337 15.0194 8.60961 16.4098 9.63474 17.4349C10.6599 18.46 12.0502 19.0359 13.5 19.0359C14.9497 19.0359 16.3401 18.46 17.3652 17.4349C18.3903 16.4098 18.9663 15.0194 18.9663 13.5696C18.9663 12.1199 18.3903 10.7295 17.3652 9.7044C16.3401 8.67927 14.9497 8.10336 13.5 8.10336ZM13.5 10.2899C13.9307 10.2898 14.3572 10.3746 14.7551 10.5393C15.1531 10.7041 15.5147 10.9456 15.8193 11.2501C16.1239 11.5546 16.3655 11.9161 16.5304 12.314C16.6953 12.7119 16.7802 13.1384 16.7803 13.5691C16.7804 13.9998 16.6956 14.4263 16.5308 14.8242C16.3661 15.2222 16.1246 15.5838 15.8201 15.8884C15.5156 16.193 15.154 16.4346 14.7561 16.5995C14.3583 16.7644 13.9318 16.8493 13.5011 16.8494C12.6312 16.8494 11.797 16.5039 11.1819 15.8888C10.5669 15.2737 10.2213 14.4395 10.2213 13.5696C10.2213 12.6998 10.5669 11.8656 11.1819 11.2505C11.797 10.6354 12.6312 10.2899 13.5011 10.2899M19.2407 6.46348C18.8782 6.46348 18.5306 6.60746 18.2744 6.86374C18.0181 7.12002 17.8741 7.46761 17.8741 7.83005C17.8741 8.19248 18.0181 8.54008 18.2744 8.79636C18.5306 9.05264 18.8782 9.19662 19.2407 9.19662C19.6031 9.19662 19.9507 9.05264 20.207 8.79636C20.4633 8.54008 20.6072 8.19248 20.6072 7.83005C20.6072 7.46761 20.4633 7.12002 20.207 6.86374C19.9507 6.60746 19.6031 6.46348 19.2407 6.46348Z" fill="white"/>
</svg>
