<svg width="22" height="22" viewBox="0 0 22 22" fill="none" xmlns="http://www.w3.org/2000/svg">
<path d="M5.25249 8.3181L1.80376 11.7668C1.24413 12.319 0.799265 12.9764 0.494762 13.7012C0.19026 14.426 0.0321407 15.2039 0.0295067 15.9901C0.0268726 16.7763 0.179777 17.5552 0.479418 18.282C0.779057 19.0089 1.21951 19.6693 1.77542 20.2252C2.33133 20.7811 2.99172 21.2215 3.71855 21.5212C4.44539 21.8208 5.22432 21.9737 6.01049 21.9711C6.79666 21.9685 7.57455 21.8103 8.29936 21.5058C9.02417 21.2013 9.68159 20.7565 10.2338 20.1968L11.3826 19.048C11.538 18.8981 11.6619 18.7188 11.7472 18.5204C11.8325 18.3221 11.8774 18.1088 11.8794 17.893C11.8814 17.6771 11.8404 17.463 11.7587 17.2632C11.6771 17.0633 11.5564 16.8818 11.4039 16.7291C11.2513 16.5763 11.0698 16.4555 10.8701 16.3737C10.6703 16.2919 10.4563 16.2506 10.2404 16.2524C10.0245 16.2542 9.81117 16.2989 9.61278 16.384C9.4144 16.4691 9.23495 16.5929 9.0849 16.7481L7.93388 17.898C7.42491 18.4024 6.73686 18.6847 6.02029 18.683C5.30373 18.6813 4.617 18.3959 4.11038 17.8891C3.60377 17.3824 3.31851 16.6956 3.31705 15.979C3.31558 15.2624 3.59802 14.5745 4.10255 14.0656L7.55129 10.6169C7.92405 10.244 8.39751 9.98792 8.91365 9.88011C9.42978 9.7723 9.96616 9.81742 10.457 10.01C10.6319 10.0793 10.7959 10.1501 10.9491 10.2224L11.452 10.4576C12.124 10.761 12.6409 10.8911 13.2988 10.2343C14.2439 9.28921 13.999 8.41673 12.8469 7.62228C11.6992 6.83256 10.3112 6.46975 8.92385 6.59686C7.53653 6.72397 6.23755 7.33297 5.25249 8.3181ZM11.7663 1.8043L10.6174 2.95316C10.3211 3.25963 10.1571 3.67022 10.1606 4.09649C10.1641 4.52276 10.3349 4.9306 10.6362 5.23217C10.9374 5.53373 11.3451 5.7049 11.7714 5.70881C12.1976 5.71271 12.6084 5.54904 12.9151 5.25304L14.0651 4.10418C14.315 3.84532 14.6139 3.63882 14.9444 3.49672C15.275 3.35462 15.6305 3.27977 15.9903 3.27654C16.35 3.27332 16.7069 3.34177 17.0399 3.47792C17.3729 3.61406 17.6755 3.81517 17.93 4.06951C18.1845 4.32384 18.3857 4.62631 18.5221 4.95927C18.6584 5.29223 18.7271 5.649 18.724 6.00878C18.721 6.36855 18.6464 6.72412 18.5045 7.05474C18.3626 7.38536 18.1562 7.6844 17.8975 7.93442L14.4488 11.3832C14.076 11.7561 13.6025 12.0121 13.0864 12.1199C12.5703 12.2278 12.0339 12.1826 11.543 11.9901C11.3682 11.9207 11.2041 11.8499 11.051 11.7777L10.5481 11.5425C9.8761 11.239 9.35803 11.109 8.70123 11.7658C7.75613 12.7108 8.00108 13.5833 9.15318 14.3778C10.3009 15.1675 11.6889 15.5303 13.0762 15.4032C14.4635 15.2761 15.7625 14.6671 16.7476 13.682L20.1963 10.2332C20.7559 9.68105 21.2008 9.02363 21.5053 8.29882C21.8098 7.57401 21.9679 6.79612 21.9705 6.00995C21.9732 5.22377 21.8203 4.44485 21.5206 3.71801C21.221 2.99118 20.7805 2.33079 20.2246 1.77488C19.6687 1.21897 19.0083 0.778515 18.2815 0.478875C17.5547 0.179235 16.7757 0.0263303 15.9896 0.0289641C15.2034 0.0315979 14.4255 0.189718 13.7007 0.494221C12.9759 0.798724 12.3185 1.24468 11.7663 1.8043Z" fill="white"/>
</svg>
