<svg width="22" height="23" viewBox="0 0 22 23" fill="none" xmlns="http://www.w3.org/2000/svg">
<g id="icon-park:dashboard">
<path id="Vector" d="M6.5 19.8571V17.9286H5.01001C4.72417 17.9286 4.48417 17.8291 4.29001 17.6303C4.09584 17.4314 3.99917 17.1846 4.00001 16.8897V6.12058C4.00001 5.81543 4.09667 5.56429 4.29001 5.36715C4.48334 5.17001 4.72334 5.07143 5.01001 5.07143H6.5V3.14287C6.5 2.96029 6.56 2.80772 6.68 2.68515C6.8 2.56258 6.94876 2.50087 7.12626 2.50001C7.30376 2.49915 7.45209 2.56087 7.57125 2.68515C7.69042 2.80944 7.75 2.96201 7.75 3.14287V5.07143H9.24C9.52584 5.07143 9.76584 5.17086 9.96 5.36972C10.1542 5.56858 10.2508 5.81543 10.25 6.11029V16.8807C10.25 17.1859 10.1533 17.4366 9.96 17.6329C9.76667 17.8291 9.52667 17.9277 9.24 17.9286H7.75V19.8571C7.75 20.0397 7.69 20.1923 7.57 20.3148C7.45 20.4374 7.30125 20.4991 7.12375 20.5C6.94625 20.5008 6.79792 20.4391 6.67875 20.3148C6.55959 20.1906 6.5 20.038 6.5 19.8571ZM15.25 19.8571V14.5664H13.76C13.4742 14.5664 13.2342 14.467 13.04 14.2681C12.8467 14.0684 12.75 13.8216 12.75 13.5276V8.43486C12.75 8.14 12.8467 7.89315 13.04 7.69429C13.2342 7.49543 13.4742 7.396 13.76 7.396H15.25V3.14287C15.25 2.96029 15.31 2.80772 15.43 2.68515C15.55 2.56258 15.6988 2.50087 15.8763 2.50001C16.0538 2.49915 16.2021 2.56087 16.3213 2.68515C16.4404 2.80944 16.5 2.96201 16.5 3.14287V7.396H17.99C18.2767 7.396 18.5167 7.49543 18.71 7.69429C18.9033 7.89315 19 8.14 19 8.43486V13.5276C19 13.8216 18.9033 14.0684 18.71 14.2681C18.5167 14.4679 18.2767 14.5673 17.99 14.5664H16.5V19.8571C16.5 20.0397 16.44 20.1923 16.32 20.3148C16.2 20.4374 16.0513 20.4991 15.8738 20.5C15.6963 20.5008 15.5479 20.4391 15.4288 20.3148C15.3096 20.1906 15.25 20.038 15.25 19.8571Z" fill="#898989"/>
</g>
</svg>
