<svg width="20" height="20" viewBox="0 0 20 20" fill="none" xmlns="http://www.w3.org/2000/svg">
<path d="M20 10C20 15.523 15.523 20 10 20C4.477 20 0 15.523 0 10C0 4.477 4.477 0 10 0V2C8.11876 2.00015 6.29775 2.66326 4.85692 3.87283C3.41608 5.0824 2.4476 6.76104 2.12164 8.61383C1.79567 10.4666 2.13307 12.375 3.07456 14.0037C4.01605 15.6324 5.5014 16.8772 7.26962 17.5194C9.03785 18.1616 10.9758 18.1601 12.7431 17.5152C14.5103 16.8703 15.9938 15.6233 16.9328 13.9931C17.8718 12.363 18.2063 10.4541 17.8775 8.60182C17.5487 6.74954 16.5777 5.07237 15.135 3.865L13 6V0H19L16.553 2.447C17.636 3.38479 18.5044 4.54475 19.0992 5.84804C19.694 7.15133 20.0012 8.5674 20 10Z" fill="#898989"/>
</svg>
