<svg width="22" height="22" viewBox="0 0 22 22" fill="none" xmlns="http://www.w3.org/2000/svg">
<g id="ant-design:reload-time-outline">
<path id="Vector" d="M11.5207 5.99768H10.4826C10.3876 5.99768 10.3099 6.07303 10.3099 6.16512V11.9272C10.3099 11.9816 10.3358 12.0319 10.3811 12.0633L13.9488 14.5895C14.0265 14.644 14.1344 14.6293 14.1905 14.554L14.8078 13.7377C14.866 13.6602 14.8488 13.5556 14.7711 13.5033L11.6934 11.3453V6.16512C11.6934 6.07303 11.6157 5.99768 11.5207 5.99768ZM16.2646 7.57163L19.6488 8.37326C19.7567 8.39837 19.8625 8.31884 19.8625 8.21209L19.8798 4.83186C19.8798 4.69163 19.7136 4.6121 19.6013 4.7L16.1999 7.27651C16.1742 7.2958 16.1546 7.32173 16.1434 7.35132C16.1322 7.38092 16.1299 7.41297 16.1366 7.4438C16.1434 7.47463 16.159 7.50298 16.1816 7.52559C16.2043 7.54821 16.233 7.56416 16.2646 7.57163ZM19.8841 13.8737L18.6603 13.4656C18.6177 13.4514 18.571 13.454 18.5302 13.4727C18.4895 13.4915 18.4579 13.525 18.4423 13.566C18.4013 13.6728 18.3582 13.7774 18.3128 13.8821C17.9287 14.7633 17.3783 15.5565 16.6747 16.2367C15.9789 16.9136 15.1543 17.4531 14.2466 17.8253C13.3063 18.2109 12.2955 18.4088 11.2747 18.4072C10.243 18.4072 9.2437 18.2126 8.30269 17.8253C7.39499 17.4531 6.5704 16.9136 5.87461 16.2367C5.17317 15.5565 4.6228 14.7633 4.23647 13.8821C3.84108 12.9697 3.63852 11.9897 3.64078 11C3.64078 9.99954 3.8415 9.02837 4.24078 8.11582C4.62496 7.23465 5.17532 6.4414 5.87893 5.76116C6.57472 5.08432 7.39931 4.54482 8.307 4.17256C9.2437 3.78535 10.2451 3.5907 11.2768 3.5907C12.3085 3.5907 13.3078 3.78535 14.2488 4.17256C15.1565 4.54482 15.9811 5.08432 16.6769 5.76116C16.897 5.97675 17.1042 6.2007 17.2941 6.43721L18.5848 5.45768C16.8862 3.3521 14.2423 1.99791 11.2725 2C6.10123 2.0021 1.94868 6.07512 2.00048 11.0921C2.05228 16.0212 6.1854 20 11.2768 20C15.2804 20 18.6905 17.5386 19.9898 14.0914C20.0222 14.0035 19.9747 13.9051 19.8841 13.8737Z" fill="#7A7A7A"/>
</g>
</svg>
