<svg width="68" height="22" viewBox="0 0 68 22" fill="none" xmlns="http://www.w3.org/2000/svg">
<g id="Group 1000004233">
<rect id="Rectangle 30184" x="0.5" y="0.162109" width="67" height="21.6765" rx="4.92647" fill="url(#paint0_linear_118_517)"/>
<g id="Save 30%">
<path d="M13.4124 8.50849C13.3676 8.11101 13.1828 7.8031 12.8581 7.58477C12.5334 7.36364 12.1248 7.25308 11.6321 7.25308C11.2794 7.25308 10.9743 7.30906 10.7168 7.42102C10.4593 7.53019 10.2591 7.68134 10.1164 7.87448C9.97643 8.06482 9.90645 8.28176 9.90645 8.52528C9.90645 8.72962 9.95404 8.90596 10.0492 9.05432C10.1472 9.20267 10.2745 9.32723 10.4313 9.428C10.5908 9.52597 10.7616 9.60854 10.9435 9.67572C11.1255 9.7401 11.3004 9.79329 11.4684 9.83527L12.3081 10.0536C12.5824 10.1208 12.8637 10.2118 13.152 10.3265C13.4404 10.4413 13.7077 10.5924 13.954 10.78C14.2003 10.9675 14.3991 11.1999 14.5502 11.477C14.7042 11.7541 14.7811 12.0858 14.7811 12.4721C14.7811 12.9591 14.6552 13.3916 14.4033 13.7695C14.1541 14.1473 13.7916 14.4454 13.3158 14.6638C12.8427 14.8821 12.2703 14.9913 11.5985 14.9913C10.9547 14.9913 10.3977 14.8891 9.92744 14.6848C9.45719 14.4804 9.0891 14.1907 8.82319 13.8156C8.55727 13.4378 8.41032 12.9899 8.38232 12.4721H9.68392C9.70911 12.7828 9.80988 13.0417 9.98623 13.2488C10.1654 13.4532 10.3935 13.6057 10.6706 13.7065C10.9505 13.8044 11.257 13.8534 11.5901 13.8534C11.9568 13.8534 12.2829 13.796 12.5684 13.6813C12.8567 13.5637 13.0835 13.4014 13.2486 13.1942C13.4138 12.9843 13.4963 12.7394 13.4963 12.4595C13.4963 12.2047 13.4236 11.9962 13.278 11.8339C13.1352 11.6715 12.9407 11.5371 12.6944 11.4308C12.4509 11.3244 12.1751 11.2306 11.8672 11.1495L10.8512 10.8724C10.1626 10.6848 9.61674 10.4091 9.21367 10.0452C8.81339 9.68132 8.61325 9.19987 8.61325 8.60086C8.61325 8.10541 8.74761 7.67295 9.01633 7.30346C9.28504 6.93397 9.64893 6.64706 10.108 6.44273C10.567 6.23559 11.0849 6.13202 11.6615 6.13202C12.2437 6.13202 12.7574 6.23419 13.2024 6.43853C13.6503 6.64287 14.003 6.92418 14.2605 7.28247C14.518 7.63796 14.6524 8.04663 14.6636 8.50849H13.4124Z" fill="#6A5705"/>
<path d="M18.1076 14.9913C17.6989 14.9913 17.3294 14.9157 16.9991 14.7645C16.6688 14.6106 16.4071 14.3881 16.2139 14.097C16.0236 13.8058 15.9284 13.449 15.9284 13.0263C15.9284 12.6624 15.9984 12.3629 16.1384 12.1278C16.2783 11.8926 16.4673 11.7065 16.7052 11.5693C16.9431 11.4322 17.209 11.3286 17.5029 11.2586C17.7969 11.1887 18.0964 11.1355 18.4015 11.0991C18.7877 11.0543 19.1012 11.0179 19.342 10.9899C19.5827 10.9591 19.7576 10.9101 19.8668 10.843C19.976 10.7758 20.0306 10.6666 20.0306 10.5155V10.4861C20.0306 10.1194 19.927 9.83527 19.7199 9.63374C19.5155 9.4322 19.2104 9.33143 18.8045 9.33143C18.3819 9.33143 18.0488 9.4252 17.8052 9.61274C17.5645 9.79749 17.398 10.0032 17.3056 10.23L16.1258 9.96124C16.2657 9.56936 16.4701 9.25306 16.7388 9.01233C17.0103 8.76881 17.3224 8.59246 17.6751 8.48329C18.0278 8.37133 18.3987 8.31535 18.7877 8.31535C19.0453 8.31535 19.3182 8.34614 19.6065 8.40772C19.8976 8.4665 20.1691 8.57567 20.421 8.73522C20.6758 8.89477 20.8843 9.1229 21.0466 9.4196C21.209 9.71351 21.2902 10.0956 21.2902 10.5658V14.8485H20.0641V13.9668H20.0138C19.9326 14.1291 19.8108 14.2887 19.6485 14.4454C19.4861 14.6022 19.2776 14.7324 19.0229 14.8359C18.7681 14.9395 18.463 14.9913 18.1076 14.9913ZM18.3805 13.9836C18.7276 13.9836 19.0243 13.915 19.2706 13.7779C19.5197 13.6407 19.7087 13.4615 19.8374 13.2404C19.969 13.0165 20.0348 12.7772 20.0348 12.5224V11.6911C19.99 11.7359 19.9032 11.7779 19.7744 11.8171C19.6485 11.8534 19.5043 11.8856 19.342 11.9136C19.1796 11.9388 19.0215 11.9626 18.8675 11.985C18.7136 12.0046 18.5848 12.0214 18.4812 12.0354C18.2377 12.0662 18.0152 12.118 17.8136 12.1907C17.6149 12.2635 17.4554 12.3685 17.335 12.5056C17.2174 12.64 17.1586 12.8191 17.1586 13.0431C17.1586 13.3538 17.2734 13.5889 17.5029 13.7485C17.7325 13.9052 18.025 13.9836 18.3805 13.9836Z" fill="#6A5705"/>
<path d="M28.2485 8.39932L25.9098 14.8485H24.5662L22.2233 8.39932H23.5711L25.2044 13.3622H25.2716L26.9007 8.39932H28.2485Z" fill="#6A5705"/>
<path d="M31.9884 14.9787C31.353 14.9787 30.8058 14.8429 30.3468 14.5714C29.8905 14.2971 29.5378 13.9122 29.2887 13.4168C29.0424 12.9185 28.9192 12.3349 28.9192 11.6659C28.9192 11.0053 29.0424 10.4231 29.2887 9.91925C29.5378 9.4154 29.8849 9.02213 30.33 8.73941C30.7778 8.4567 31.3013 8.31535 31.9003 8.31535C32.2642 8.31535 32.6168 8.37553 32.9583 8.49589C33.2998 8.61625 33.6063 8.80519 33.8779 9.06271C34.1494 9.32023 34.3635 9.65473 34.5203 10.0662C34.677 10.4749 34.7554 10.9717 34.7554 11.5567V12.0018H29.6288V11.0613H33.5252C33.5252 10.731 33.458 10.4385 33.3236 10.1838C33.1893 9.92625 33.0003 9.72331 32.7568 9.57495C32.5161 9.4266 32.2334 9.35242 31.9087 9.35242C31.556 9.35242 31.2481 9.4392 30.985 9.61274C30.7246 9.78349 30.5231 10.0074 30.3803 10.2845C30.2404 10.5588 30.1704 10.857 30.1704 11.1789V11.9136C30.1704 12.3447 30.246 12.7114 30.3971 13.0137C30.5511 13.316 30.7652 13.5469 31.0395 13.7065C31.3139 13.8632 31.6344 13.9416 32.001 13.9416C32.239 13.9416 32.4559 13.908 32.6518 13.8408C32.8478 13.7709 33.0171 13.6673 33.1599 13.5301C33.3026 13.393 33.4118 13.2236 33.4874 13.0221L34.6756 13.2362C34.5804 13.5861 34.4097 13.8926 34.1634 14.1557C33.9198 14.4161 33.6133 14.619 33.2439 14.7645C32.8772 14.9073 32.4587 14.9787 31.9884 14.9787Z" fill="#6A5705"/>
<path d="M42.2543 14.9661C41.6776 14.9661 41.1626 14.8667 40.7091 14.668C40.2585 14.4692 39.9016 14.1935 39.6385 13.8408C39.3782 13.4853 39.2382 13.0739 39.2186 12.6064H40.537C40.5538 12.8611 40.6392 13.0823 40.7931 13.2698C40.9499 13.4546 41.1542 13.5973 41.4061 13.6981C41.658 13.7988 41.938 13.8492 42.2459 13.8492C42.5846 13.8492 42.8841 13.7904 43.1444 13.6729C43.4075 13.5553 43.6132 13.3916 43.7616 13.1816C43.9099 12.9689 43.9841 12.724 43.9841 12.4469C43.9841 12.1586 43.9099 11.9052 43.7616 11.6869C43.616 11.4658 43.4019 11.2922 43.1192 11.1663C42.8393 11.0403 42.5006 10.9773 42.1031 10.9773H41.3767V9.91925H42.1031C42.4222 9.91925 42.7021 9.86187 42.9428 9.7471C43.1864 9.63234 43.3767 9.47279 43.5139 9.26845C43.651 9.06131 43.7196 8.81919 43.7196 8.54208C43.7196 8.27616 43.6594 8.04523 43.5391 7.84929C43.4215 7.65055 43.2536 7.4952 43.0352 7.38324C42.8197 7.27127 42.565 7.21529 42.2711 7.21529C41.9911 7.21529 41.7294 7.26707 41.4859 7.37064C41.2452 7.47141 41.0492 7.61696 40.8981 7.8073C40.7469 7.99485 40.6658 8.22018 40.6546 8.48329H39.3991C39.4131 8.01864 39.5503 7.60997 39.8106 7.25727C40.0737 6.90458 40.4208 6.62887 40.8519 6.43013C41.283 6.23139 41.7616 6.13202 42.2878 6.13202C42.8393 6.13202 43.3151 6.23979 43.7154 6.45532C44.1185 6.66806 44.4292 6.95217 44.6475 7.30766C44.8686 7.66315 44.9778 8.05223 44.975 8.4749C44.9778 8.95635 44.8435 9.36502 44.5719 9.70092C44.3032 10.0368 43.9449 10.2621 43.4971 10.3769V10.4441C44.0681 10.5309 44.5104 10.7576 44.8239 11.1243C45.1402 11.491 45.2969 11.9458 45.2941 12.4889C45.2969 12.9619 45.1654 13.386 44.8994 13.7611C44.6363 14.1361 44.2766 14.4314 43.8204 14.647C43.3641 14.8597 42.8421 14.9661 42.2543 14.9661Z" fill="#6A5705"/>
<path d="M49.8749 14.9913C49.2115 14.9885 48.6447 14.8135 48.1744 14.4664C47.7042 14.1193 47.3445 13.6141 47.0954 12.9507C46.8462 12.2873 46.7217 11.4882 46.7217 10.5533C46.7217 9.62114 46.8462 8.82479 47.0954 8.16419C47.3473 7.5036 47.7084 6.99975 48.1786 6.65266C48.6517 6.30557 49.2171 6.13202 49.8749 6.13202C50.5327 6.13202 51.0967 6.30697 51.567 6.65686C52.0372 7.00395 52.3969 7.5078 52.646 8.16839C52.898 8.82619 53.0239 9.62114 53.0239 10.5533C53.0239 11.491 52.8994 12.2915 52.6502 12.9549C52.4011 13.6155 52.0414 14.1207 51.5712 14.4706C51.1009 14.8177 50.5355 14.9913 49.8749 14.9913ZM49.8749 13.8702C50.4571 13.8702 50.912 13.5861 51.2395 13.0179C51.5698 12.4497 51.7349 11.6281 51.7349 10.5533C51.7349 9.83947 51.6593 9.23626 51.5082 8.74361C51.3598 8.24817 51.1457 7.87308 50.8658 7.61836C50.5887 7.36084 50.2584 7.23208 49.8749 7.23208C49.2955 7.23208 48.8406 7.51759 48.5103 8.08862C48.18 8.65964 48.0135 9.48118 48.0107 10.5533C48.0107 11.2698 48.0848 11.8758 48.2332 12.3713C48.3844 12.8639 48.5985 13.2376 48.8756 13.4923C49.1527 13.7443 49.4858 13.8702 49.8749 13.8702Z" fill="#6A5705"/>
<path d="M59.0018 13.2362V12.7828C59.0018 12.4581 59.069 12.1614 59.2033 11.8926C59.3405 11.6211 59.5392 11.4042 59.7996 11.2418C60.0627 11.0767 60.3804 10.9941 60.7527 10.9941C61.1333 10.9941 61.4524 11.0753 61.71 11.2376C61.9675 11.4 62.162 11.6169 62.2936 11.8884C62.4279 12.16 62.4951 12.4581 62.4951 12.7828V13.2362C62.4951 13.5609 62.4279 13.859 62.2936 14.1305C62.1592 14.3993 61.9619 14.6162 61.7016 14.7813C61.444 14.9437 61.1278 15.0249 60.7527 15.0249C60.3748 15.0249 60.0557 14.9437 59.7954 14.7813C59.535 14.6162 59.3377 14.3993 59.2033 14.1305C59.069 13.859 59.0018 13.5609 59.0018 13.2362ZM59.9801 12.7828V13.2362C59.9801 13.4769 60.0375 13.6953 60.1523 13.8912C60.267 14.0872 60.4672 14.1851 60.7527 14.1851C61.0354 14.1851 61.2327 14.0872 61.3447 13.8912C61.4566 13.6953 61.5126 13.4769 61.5126 13.2362V12.7828C61.5126 12.542 61.458 12.3237 61.3489 12.1278C61.2425 11.9318 61.0438 11.8339 60.7527 11.8339C60.4728 11.8339 60.274 11.9318 60.1565 12.1278C60.0389 12.3237 59.9801 12.542 59.9801 12.7828ZM54.6772 8.31535V7.86189C54.6772 7.53719 54.7443 7.23908 54.8787 6.96756C55.0158 6.69605 55.2146 6.47912 55.4749 6.31677C55.738 6.15442 56.0557 6.07324 56.428 6.07324C56.8087 6.07324 57.1278 6.15442 57.3853 6.31677C57.6428 6.47912 57.8374 6.69605 57.9689 6.96756C58.1005 7.23908 58.1663 7.53719 58.1663 7.86189V8.31535C58.1663 8.64005 58.0991 8.93815 57.9647 9.20967C57.8332 9.47838 57.6372 9.69532 57.3769 9.86047C57.1194 10.0228 56.8031 10.104 56.428 10.104C56.0473 10.104 55.7268 10.0228 55.4665 9.86047C55.209 9.69532 55.0131 9.47838 54.8787 9.20967C54.7443 8.93815 54.6772 8.64005 54.6772 8.31535ZM55.6596 7.86189V8.31535C55.6596 8.55607 55.7156 8.7744 55.8276 8.97034C55.9424 9.16628 56.1425 9.26425 56.428 9.26425C56.7079 9.26425 56.9039 9.16628 57.0158 8.97034C57.1306 8.7744 57.188 8.55607 57.188 8.31535V7.86189C57.188 7.62116 57.1334 7.40283 57.0242 7.20689C56.9151 7.01095 56.7163 6.91298 56.428 6.91298C56.1481 6.91298 55.9494 7.01095 55.8318 7.20689C55.717 7.40283 55.6596 7.62116 55.6596 7.86189ZM55.076 14.8485L60.9878 6.24959H61.9913L56.0795 14.8485H55.076Z" fill="#6A5705"/>
</g>
</g>
<defs>
<linearGradient id="paint0_linear_118_517" x1="34" y1="0.162109" x2="34" y2="21.8386" gradientUnits="userSpaceOnUse">
<stop stop-color="#FFF8DA"/>
<stop offset="1" stop-color="#FFEDA0"/>
</linearGradient>
</defs>
</svg>
