<svg width="22" height="22" viewBox="0 0 22 22" fill="none" xmlns="http://www.w3.org/2000/svg">
<g id="material-symbols:search">
<path id="Vector" d="M18.6 20L12.3 13.7C11.8 14.1 11.225 14.4167 10.575 14.65C9.925 14.8833 9.23333 15 8.5 15C6.68333 15 5.146 14.3707 3.888 13.112C2.63 11.8533 2.00067 10.316 2 8.5C1.99933 6.684 2.62867 5.14667 3.888 3.888C5.14733 2.62933 6.68467 2 8.5 2C10.3153 2 11.853 2.62933 13.113 3.888C14.373 5.14667 15.002 6.684 15 8.5C15 9.23333 14.8833 9.925 14.65 10.575C14.4167 11.225 14.1 11.8 13.7 12.3L20 18.6L18.6 20ZM8.5 13C9.75 13 10.8127 12.5627 11.688 11.688C12.5633 10.8133 13.0007 9.75067 13 8.5C12.9993 7.24933 12.562 6.187 11.688 5.313C10.814 4.439 9.75133 4.00133 8.5 4C7.24867 3.99867 6.18633 4.43633 5.313 5.313C4.43967 6.18967 4.002 7.252 4 8.5C3.998 9.748 4.43567 10.8107 5.313 11.688C6.19033 12.5653 7.25267 13.0027 8.5 13Z" fill="white"/>
</g>
</svg>
