<svg width="21" height="22" viewBox="0 0 21 22" fill="none" xmlns="http://www.w3.org/2000/svg">
<g id="jam:triangle-danger-f">
<path id="Vector" d="M12.88 4.93366L18.5759 14.8546C19.3944 16.2795 18.9924 18.1542 17.6774 19.0413C17.2364 19.3408 16.7218 19.5001 16.1959 19.5H4.80331C3.25545 19.5 2 18.14 2 16.4609C2 15.8929 2.14705 15.3373 2.4233 14.8546L8.12002 4.93366C8.93772 3.50876 10.6666 3.07232 11.9816 3.95943C12.3454 4.20477 12.6531 4.5381 12.88 4.93366ZM10.5 15.9444C10.7255 15.9444 10.9417 15.8508 11.1011 15.6841C11.2605 15.5174 11.35 15.2913 11.35 15.0555C11.35 14.8198 11.2605 14.5937 11.1011 14.427C10.9417 14.2603 10.7255 14.1666 10.5 14.1666C10.2746 14.1666 10.0584 14.2603 9.89898 14.427C9.73958 14.5937 9.65002 14.8198 9.65002 15.0555C9.65002 15.2913 9.73958 15.5174 9.89898 15.6841C10.0584 15.8508 10.2746 15.9444 10.5 15.9444ZM10.5 7.94435C10.2746 7.94435 10.0584 8.038 9.89898 8.20471C9.73958 8.37141 9.65002 8.5975 9.65002 8.83325V12.3888C9.65002 12.6246 9.73958 12.8507 9.89898 13.0174C10.0584 13.1841 10.2746 13.2777 10.5 13.2777C10.7255 13.2777 10.9417 13.1841 11.1011 13.0174C11.2605 12.8507 11.35 12.6246 11.35 12.3888V8.83325C11.35 8.5975 11.2605 8.37141 11.1011 8.20471C10.9417 8.038 10.7255 7.94435 10.5 7.94435Z" fill="#E67E22"/>
</g>
</svg>
